<svg width="800" height="745" viewBox="0 0 800 745" fill="none" xmlns="http://www.w3.org/2000/svg">
<path d="M577.23 744.894H219.604C189.871 744.894 189.871 716.308 189.871 702.564L199.177 266.457L135.941 323.199C132.03 326.828 126.936 328.915 121.603 329.075C116.271 329.235 111.061 327.457 106.939 324.069C101.019 320.07 95.5665 315.418 90.686 310.199L19.5818 248.855C10.087 239.398 -10.3022 218.996 6.29173 202.377L99.8529 108.815C106.094 101.25 163.757 34.3066 254.481 34.3066H309.509V59.5253H254.481C172.369 59.5253 119.561 124.489 119.095 125.094C118.792 125.459 118.477 125.813 118.149 126.141L26.1008 218.189C29.2016 222.543 32.7195 226.584 36.6045 230.256L107.721 291.613C111.667 295.814 116.017 299.615 120.709 302.961L203.93 228.2C205.761 226.557 208.032 225.484 210.464 225.115C212.896 224.745 215.383 225.096 217.619 226.122C219.854 227.149 221.741 228.807 223.046 230.893C224.351 232.978 225.017 235.4 224.963 237.859L215.039 702.779C214.655 708.364 215.261 713.973 216.83 719.347C217.722 719.557 218.637 719.65 219.554 719.625H577.18C578.151 719.691 579.125 719.558 580.042 719.234C581.512 713.79 582.07 708.14 581.694 702.514L571.77 237.859C571.716 235.4 572.382 232.978 573.687 230.893C574.992 228.807 576.879 227.149 579.114 226.122C581.35 225.096 583.837 224.745 586.269 225.115C588.702 225.484 590.973 226.557 592.803 228.2L676.983 303.768L771.364 218.907L678.634 126.178C678.301 125.855 677.989 125.509 677.701 125.144C677.172 124.489 624.024 59.5128 542.302 59.5128H489.608V34.2941H542.353C633.14 34.2941 690.74 101.224 696.981 108.803L790.53 202.364C803.139 214.973 803.139 223.006 790.631 235.501L693.148 323.162C691.252 325.723 688.834 327.854 686.054 329.412C683.274 330.971 680.195 331.922 677.021 332.202C673.758 331.887 670.599 330.886 667.751 329.265C664.902 327.644 662.428 325.439 660.49 322.796L597.657 266.394L606.963 702.236C606.963 716.308 606.963 744.894 577.23 744.894Z" fill="black"/>
<path d="M423.22 253.293C421.548 253.293 419.944 252.629 418.762 251.447C417.579 250.264 416.916 248.661 416.916 246.989V119.319C416.916 117.647 417.579 116.043 418.762 114.861C419.944 113.679 421.548 113.014 423.22 113.014C424.892 113.014 426.496 113.679 427.678 114.861C428.861 116.043 429.525 117.647 429.525 119.319V246.989C429.525 248.661 428.861 250.264 427.678 251.447C426.496 252.629 424.892 253.293 423.22 253.293Z" fill="black"/>
<path d="M372.783 253.293C371.111 253.293 369.507 252.629 368.324 251.447C367.142 250.264 366.478 248.661 366.478 246.989V119.319C366.478 117.647 367.142 116.043 368.324 114.861C369.507 113.679 371.111 113.014 372.783 113.014C374.455 113.014 376.058 113.679 377.241 114.861C378.423 116.043 379.087 117.647 379.087 119.319V246.989C379.087 248.661 378.423 250.264 377.241 251.447C376.058 252.629 374.455 253.293 372.783 253.293Z" fill="black"/>
<path d="M405.416 151.75C405.413 153.333 404.942 154.879 404.061 156.194C403.18 157.509 401.93 158.533 400.467 159.137C399.005 159.742 397.396 159.9 395.844 159.59C394.292 159.281 392.866 158.518 391.747 157.399C390.628 156.28 389.866 154.855 389.556 153.303C389.247 151.751 389.405 150.142 390.009 148.679C390.614 147.217 391.638 145.966 392.953 145.085C394.267 144.204 395.814 143.733 397.396 143.731C398.45 143.729 399.493 143.935 400.467 144.338C401.441 144.74 402.326 145.331 403.071 146.076C403.816 146.821 404.406 147.706 404.809 148.679C405.211 149.653 405.417 150.697 405.416 151.75Z" fill="black"/>
<path d="M405.416 176.969C405.413 178.552 404.942 180.098 404.061 181.413C403.18 182.727 401.93 183.752 400.467 184.356C399.005 184.961 397.396 185.118 395.844 184.809C394.292 184.5 392.866 183.737 391.747 182.618C390.628 181.499 389.866 180.074 389.556 178.522C389.247 176.97 389.405 175.361 390.009 173.898C390.614 172.436 391.638 171.185 392.953 170.304C394.267 169.423 395.814 168.952 397.396 168.949C398.45 168.948 399.493 169.154 400.467 169.557C401.441 169.959 402.326 170.55 403.071 171.295C403.816 172.04 404.406 172.924 404.809 173.898C405.211 174.872 405.417 175.915 405.416 176.969Z" fill="black"/>
<path d="M405.416 202.188C405.413 203.77 404.942 205.316 404.061 206.631C403.18 207.946 401.93 208.97 400.467 209.575C399.005 210.179 397.396 210.337 395.844 210.027C394.292 209.718 392.866 208.956 391.747 207.837C390.628 206.718 389.866 205.292 389.556 203.74C389.247 202.188 389.405 200.579 390.009 199.117C390.614 197.654 391.638 196.403 392.953 195.522C394.267 194.642 395.814 194.17 397.396 194.168C398.45 194.166 399.493 194.373 400.467 194.775C401.441 195.177 402.326 195.768 403.071 196.513C403.816 197.258 404.406 198.143 404.809 199.117C405.211 200.09 405.417 201.134 405.416 202.188Z" fill="black"/>
<path d="M405.416 227.406C405.413 228.989 404.942 230.535 404.061 231.85C403.18 233.165 401.93 234.189 400.467 234.793C399.005 235.398 397.396 235.556 395.844 235.246C394.292 234.937 392.866 234.174 391.747 233.055C390.628 231.936 389.866 230.511 389.556 228.959C389.247 227.407 389.405 225.798 390.009 224.335C390.614 222.873 391.638 221.622 392.953 220.741C394.267 219.86 395.814 219.389 397.396 219.387C398.45 219.385 399.493 219.591 400.467 219.994C401.441 220.396 402.326 220.987 403.071 221.732C403.816 222.477 404.406 223.362 404.809 224.335C405.211 225.309 405.417 226.353 405.416 227.406Z" fill="black"/>
<path d="M42.4179 198.039L33.957 207.383L131.662 295.858L140.123 286.514L42.4179 198.039Z" fill="black"/>
<path d="M759.231 198.061L657.375 290.642L665.857 299.973L767.712 207.392L759.231 198.061Z" fill="black"/>
<path d="M400.082 38.9344C368.911 38.9344 345.13 36.7781 344.777 36.7529L345.95 24.1436C380.439 26.9256 415.097 26.9256 449.586 24.1436L450.772 36.7529C433.409 38.4299 415.831 38.9344 400.082 38.9344Z" fill="black"/>
<path d="M399.098 16.3006C362.241 16.3006 335.572 13.6023 335.169 13.5644L336.43 0.955078C377.275 4.49496 418.349 4.49496 459.194 0.955078L460.367 13.5644C438.767 15.6197 417.646 16.3006 399.098 16.3006Z" fill="black"/>
<path d="M355.029 135.358C354.09 135.359 353.163 135.148 352.318 134.74C350.918 134.072 317.957 117.516 301.187 37.5221C300.976 36.5143 301.015 35.4703 301.301 34.4812C301.587 33.492 302.11 32.588 302.826 31.8479L330.907 2.9095C331.698 2.09612 332.695 1.51136 333.79 1.21693C334.886 0.922488 336.041 0.929247 337.134 1.23655C338.226 1.54385 339.215 2.14017 339.997 2.96279C340.778 3.78542 341.324 4.80379 341.575 5.91041C341.713 6.50305 355.52 65.6535 400.838 96.0547C401.7 96.6339 402.405 97.417 402.891 98.3343C403.377 99.2515 403.629 100.275 403.625 101.313C403.622 102.353 403.361 103.377 402.866 104.292C402.371 105.207 401.657 105.986 400.788 106.558L358.559 134.299C357.513 134.992 356.284 135.361 355.029 135.358ZM314.225 38.203C326.834 95.2351 347.551 115.751 355.029 121.5L386.186 101.023C360.825 79.552 342.141 51.2686 332.345 19.516L314.225 38.203Z" fill="black"/>
<path d="M439.776 135.358C438.544 135.356 437.34 134.997 436.308 134.324L394.092 106.584C393.229 106.008 392.521 105.228 392.031 104.313C391.541 103.398 391.285 102.376 391.285 101.338C391.285 100.3 391.541 99.2784 392.031 98.3633C392.521 97.4483 393.229 96.6683 394.092 96.0926C439.347 65.6914 453.154 6.56618 453.293 5.94833C453.544 4.84171 454.089 3.82333 454.871 3.00071C455.653 2.17808 456.642 1.58157 457.734 1.27427C458.826 0.966967 459.981 0.960207 461.077 1.25465C462.173 1.54908 463.169 2.13384 463.961 2.94722L492.029 31.8856C492.745 32.6257 493.268 33.5299 493.554 34.5191C493.84 35.5082 493.879 36.5523 493.668 37.56C476.91 117.554 443.937 134.11 442.537 134.778C441.673 135.18 440.729 135.379 439.776 135.358ZM408.631 101.023L439.776 121.5C447.253 115.751 468.021 95.2351 480.58 38.203L462.472 19.516C452.676 51.2686 433.992 79.552 408.631 101.023Z" fill="black"/>
</svg>
